<svg width="96" height="96" viewBox="0 0 96 96" fill="none" xmlns="http://www.w3.org/2000/svg">
  <rect width="96" height="96" rx="16" fill="#202020"/>
  <path d="M48 18C39 29 34.5 39 34.5 48C34.5 57 39 67 48 78C57 67 61.5 57 61.5 48C61.5 39 57 29 48 18Z" fill="#F6F3EA"/>
  <path d="M22 47C31 37 40 33 48 33C56 33 65 37 74 47" stroke="#1F9D8A" stroke-width="6" stroke-linecap="round"/>
  <path d="M18 61C30 51 40 47 48 47C56 47 66 51 78 61" stroke="#D19B2B" stroke-width="6" stroke-linecap="round"/>
  <path d="M38 22L58 74" stroke="#202020" stroke-width="5" stroke-linecap="round"/>
</svg>
